<svg width="60" height="60" viewBox="0 0 60 60" fill="none" xmlns="http://www.w3.org/2000/svg">
<g clip-path="url(#clip0_5_190)">
<circle cx="30" cy="30" r="30" fill="#1FCB30"/>
<path d="M38.293 36.3047C38.293 38.0365 37.8893 39.5078 37.082 40.7188C36.2878 41.9167 35.207 42.8281 33.8398 43.4531C32.4857 44.0781 30.9557 44.3906 29.25 44.3906C27.5443 44.3906 26.0078 44.0781 24.6406 43.4531C23.2734 42.8281 22.1927 41.9167 21.3984 40.7188C20.6042 39.5078 20.207 38.0365 20.207 36.3047C20.207 35.1719 20.4219 34.1367 20.8516 33.1992C21.2943 32.2487 21.9128 31.4219 22.707 30.7188C23.5143 30.0156 24.4648 29.4753 25.5586 29.0977C26.6654 28.707 27.8828 28.5117 29.2109 28.5117C30.9557 28.5117 32.5117 28.8503 33.8789 29.5273C35.2461 30.1914 36.3203 31.1094 37.1016 32.2812C37.8958 33.4531 38.293 34.7943 38.293 36.3047ZM34.6602 36.2266C34.6602 35.1719 34.4323 34.2409 33.9766 33.4336C33.5208 32.6133 32.8828 31.9753 32.0625 31.5195C31.2422 31.0638 30.2917 30.8359 29.2109 30.8359C28.1042 30.8359 27.1471 31.0638 26.3398 31.5195C25.5456 31.9753 24.9271 32.6133 24.4844 33.4336C24.0417 34.2409 23.8203 35.1719 23.8203 36.2266C23.8203 37.3203 24.0352 38.2578 24.4648 39.0391C24.9076 39.8073 25.5326 40.3997 26.3398 40.8164C27.1602 41.2201 28.1302 41.4219 29.25 41.4219C30.3698 41.4219 31.3333 41.2201 32.1406 40.8164C32.9479 40.3997 33.5664 39.8073 33.9961 39.0391C34.4388 38.2578 34.6602 37.3203 34.6602 36.2266ZM37.6289 22.9648C37.6289 24.3451 37.2643 25.5885 36.5352 26.6953C35.806 27.8021 34.8099 28.6745 33.5469 29.3125C32.2839 29.9505 30.8516 30.2695 29.25 30.2695C27.6224 30.2695 26.1706 29.9505 24.8945 29.3125C23.6315 28.6745 22.6419 27.8021 21.9258 26.6953C21.2096 25.5885 20.8516 24.3451 20.8516 22.9648C20.8516 21.3112 21.2096 19.9049 21.9258 18.7461C22.6549 17.5872 23.651 16.7018 24.9141 16.0898C26.1771 15.4779 27.6159 15.1719 29.2305 15.1719C30.8581 15.1719 32.3034 15.4779 33.5664 16.0898C34.8294 16.7018 35.819 17.5872 36.5352 18.7461C37.2643 19.9049 37.6289 21.3112 37.6289 22.9648ZM34.0156 23.0234C34.0156 22.0729 33.8138 21.2331 33.4102 20.5039C33.0065 19.7747 32.4466 19.2018 31.7305 18.7852C31.0143 18.3555 30.181 18.1406 29.2305 18.1406C28.2799 18.1406 27.4466 18.3424 26.7305 18.7461C26.0273 19.1367 25.474 19.6966 25.0703 20.4258C24.6797 21.1549 24.4844 22.0208 24.4844 23.0234C24.4844 24 24.6797 24.8529 25.0703 25.582C25.474 26.3112 26.0339 26.8776 26.75 27.2812C27.4661 27.6849 28.2995 27.8867 29.25 27.8867C30.2005 27.8867 31.0273 27.6849 31.7305 27.2812C32.4466 26.8776 33.0065 26.3112 33.4102 25.582C33.8138 24.8529 34.0156 24 34.0156 23.0234Z" fill="white"/>
</g>
<defs>
<clipPath id="clip0_5_190">
<rect width="60" height="60" fill="white"/>
</clipPath>
</defs>
</svg>
