<svg width="60" height="60" viewBox="0 0 60 60" fill="none" xmlns="http://www.w3.org/2000/svg">
<g clip-path="url(#clip0_5_209)">
<circle cx="30" cy="30" r="30" fill="#FEE60D"/>
<path d="M38.6099 38.68H24.3799C24.3799 38.68 15.1599 44.27 11.8199 44.32C9.15995 42.65 14.7299 39.58 12.3299 27.83V26.1C12.3299 20.14 17.7499 15.26 24.3799 15.26H38.5999C45.2199 15.26 50.6499 20.14 50.6499 26.1V27.84C50.6499 33.8 45.2299 38.68 38.6099 38.68Z" stroke="black" stroke-width="2" stroke-miterlimit="10"/>
<path d="M21.24 30.25C22.7422 30.25 23.96 29.0322 23.96 27.53C23.96 26.0278 22.7422 24.81 21.24 24.81C19.7378 24.81 18.52 26.0278 18.52 27.53C18.52 29.0322 19.7378 30.25 21.24 30.25Z" fill="black"/>
<path d="M31.12 30.25C32.6222 30.25 33.84 29.0322 33.84 27.53C33.84 26.0278 32.6222 24.81 31.12 24.81C29.6178 24.81 28.4 26.0278 28.4 27.53C28.4 29.0322 29.6178 30.25 31.12 30.25Z" fill="black"/>
<path d="M40.35 30.25C41.8522 30.25 43.07 29.0322 43.07 27.53C43.07 26.0278 41.8522 24.81 40.35 24.81C38.8478 24.81 37.63 26.0278 37.63 27.53C37.63 29.0322 38.8478 30.25 40.35 30.25Z" fill="black"/>
</g>
<defs>
<clipPath id="clip0_5_209">
<rect width="60" height="60" fill="white"/>
</clipPath>
</defs>
</svg>
