<svg width="60" height="60" viewBox="0 0 60 60" fill="none" xmlns="http://www.w3.org/2000/svg">
<circle cx="30" cy="30" r="30" fill="#F7931E"/>
<path d="M36.6675 17.01H24.51C23.52 17.01 22.71 16.2 22.71 15.21C22.71 14.22 23.52 13.41 24.51 13.41H36.6675C37.6575 13.41 38.4675 14.22 38.4675 15.21C38.4675 16.2 37.6575 17.01 36.6675 17.01Z" stroke="black" stroke-width="2" stroke-miterlimit="10"/>
<path d="M22.71 15.21H20.46C19.2225 15.21 18.21 16.2225 18.21 17.46V41.25C18.21 42.4875 19.2225 43.5 20.46 43.5H40.485C41.7225 43.5 42.735 42.4875 42.735 41.25V16.275" stroke="black" stroke-width="2" stroke-miterlimit="10"/>
<path d="M33.6451 37.86H22.3051" stroke="black" stroke-width="2" stroke-miterlimit="10"/>
<path d="M22.3425 32.835H38.19" stroke="black" stroke-width="2" stroke-miterlimit="10"/>
<path d="M22.3425 28.455H38.19" stroke="black" stroke-width="2" stroke-miterlimit="10"/>
<path d="M22.3425 24.9075H38.19" stroke="black" stroke-width="2" stroke-miterlimit="10"/>
<path d="M22.3425 20.5275H38.19" stroke="black" stroke-width="2" stroke-miterlimit="10"/>
</svg>
