<svg width="594" height="64" viewBox="0 0 594 64" fill="none" xmlns="http://www.w3.org/2000/svg">
<path d="M3.0347 63.2179C2.30596 63.2179 1.68132 62.9579 1.21284 62.49C0.69231 61.97 0.432043 61.3461 0.432043 60.6181V3.31875C0.432043 2.59081 0.69231 1.96686 1.21284 1.4469C1.68132 0.926941 2.30596 0.666962 3.0347 0.666962H17.5576C26.1463 0.666962 33.5379 3.73471 39.6281 9.81822C45.7183 15.9017 48.7895 23.2851 48.7895 31.8644C48.7895 40.4437 45.7183 47.8271 39.6281 53.9107C33.5379 59.9942 26.1463 63.0619 17.5576 63.0619L3.0347 63.2179ZM5.63736 57.9663L17.5055 57.8103C24.6888 57.8103 30.8311 55.2625 35.9323 50.219C41.0336 45.1234 43.5842 39.0399 43.5842 31.8644C43.5842 24.689 41.0336 18.6055 35.9323 13.5099C30.8311 8.46633 24.7409 5.91854 17.5576 5.91854H5.63736V57.9663Z" fill="#F7931E"/>
<path d="M91.369 63.2175C82.7282 63.2175 75.3887 60.1497 69.2464 54.0662C63.1041 47.9827 60.085 40.5993 60.085 31.968C60.085 23.3367 63.1562 15.9533 69.2464 9.86977C75.3366 3.78626 82.7282 0.718506 91.369 0.718506C100.01 0.718506 107.401 3.78626 113.492 9.86977C119.582 15.9533 122.653 23.3367 122.653 31.968C122.653 40.5993 119.582 47.9307 113.492 54.0662C107.401 60.2017 100.01 63.2175 91.369 63.2175ZM91.369 5.97008C84.1857 5.97008 78.0434 8.51788 72.9422 13.6135C67.841 18.7091 65.2903 24.8446 65.2903 32.02C65.2903 39.1954 67.841 45.3309 72.9422 50.4265C78.0434 55.5221 84.1857 58.0699 91.369 58.0699C98.5523 58.0699 104.695 55.5221 109.744 50.4265C114.845 45.3309 117.396 39.1954 117.396 32.02C117.396 24.8446 114.845 18.7091 109.744 13.6135C104.695 8.51788 98.5523 5.97008 91.369 5.97008Z" fill="#F7931E"/>
<path d="M142.954 54.0662C136.811 47.9827 133.74 40.5993 133.74 31.968C133.74 23.3367 136.811 15.9533 142.954 9.81776C149.044 3.73426 156.436 0.666504 165.076 0.666504C172.156 0.666504 178.506 2.79833 184.128 7.11398C184.7 7.58194 185.065 8.1539 185.117 8.88184C185.221 9.60978 185.065 10.2337 184.596 10.8577C184.18 11.4296 183.555 11.7936 182.879 11.8456C182.202 11.9496 181.525 11.7416 180.953 11.3256C176.268 7.73793 170.958 5.91808 165.076 5.91808C157.893 5.91808 151.751 8.46587 146.65 13.5615C141.548 18.6571 138.998 24.7926 138.998 31.968C138.998 39.1434 141.548 45.2789 146.65 50.3745C151.751 55.4701 157.893 58.0179 165.076 58.0179C171.843 58.0179 177.673 55.782 182.618 51.2584C183.191 50.7905 183.815 50.5305 184.544 50.5825C185.273 50.6345 185.898 50.8944 186.366 51.4664C186.835 51.9864 187.043 52.6103 187.043 53.3382C186.991 54.0662 186.73 54.6901 186.21 55.1581C180.224 60.5657 173.197 63.3214 165.128 63.3214C156.436 63.2174 149.096 60.1497 142.954 54.0662ZM183.035 62.4375C182.514 61.9176 182.306 61.3456 182.306 60.6177V33.0079H160.392C159.663 33.0079 159.038 32.7479 158.518 32.2799C157.997 31.76 157.737 31.136 157.737 30.4081C157.737 29.6802 157.997 29.0562 158.518 28.5882C159.038 28.0683 159.663 27.8083 160.392 27.8083H184.909C185.637 27.8083 186.262 28.0683 186.783 28.5882C187.303 29.1082 187.511 29.6802 187.511 30.4081V60.6177C187.511 61.3456 187.251 61.9696 186.783 62.4375C186.262 62.9575 185.637 63.2174 184.909 63.2174C184.18 63.2174 183.555 62.9575 183.035 62.4375Z" fill="#F7931E"/>
<path d="M205.99 63.2174C205.261 63.2174 204.637 62.9575 204.168 62.4375C203.648 61.9175 203.387 61.3456 203.387 60.6176V3.26629C203.387 2.53835 203.648 1.9144 204.168 1.44644C204.689 0.874487 205.313 0.614507 205.99 0.666503L240.606 0.770495C241.334 0.770495 241.959 1.03047 242.427 1.55043C242.948 2.07039 243.208 2.69434 243.208 3.37029C243.208 4.09823 242.948 4.72217 242.427 5.24213C241.959 5.76209 241.334 5.97007 240.606 5.97007L208.593 5.91808V29.3682H232.537C233.266 29.3682 233.891 29.6282 234.359 30.1481C234.88 30.6161 235.14 31.24 235.14 31.968C235.14 32.6959 234.88 33.3199 234.359 33.7878C233.891 34.3078 233.266 34.5678 232.537 34.5678H208.593V58.0179H240.606C241.334 58.0179 241.959 58.2778 242.427 58.7978C242.948 59.2658 243.208 59.8897 243.208 60.6176C243.208 61.3456 242.948 61.9695 242.427 62.4375C241.959 62.9575 241.334 63.2174 240.606 63.2174H205.99Z" fill="#F7931E"/>
<path d="M258.304 60.6176C258.304 61.3456 258.043 61.9695 257.575 62.4895C257.054 62.9575 256.43 63.2174 255.753 63.2174C255.024 63.2174 254.4 62.9575 253.879 62.4895C253.359 61.9695 253.15 61.3456 253.15 60.6176V3.52626C253.15 2.22636 253.775 1.39443 255.076 1.03046C256.326 0.666492 257.315 1.08246 257.991 2.22637L283.966 45.1229L309.94 2.22637C310.617 1.08246 311.606 0.718488 312.855 1.03046C314.157 1.39443 314.781 2.22636 314.781 3.52626V60.6176C314.781 61.3456 314.521 61.9695 314.001 62.4895C313.532 62.9575 312.907 63.2174 312.179 63.2174C311.502 63.2174 310.877 62.9575 310.357 62.4895C309.888 61.9695 309.628 61.3456 309.628 60.6176V12.8335L286.204 51.4664L286.152 51.5184V51.5704C286.1 51.6224 286.048 51.7264 285.996 51.7784C285.892 51.8824 285.84 51.9343 285.84 51.9343C285.788 51.9863 285.736 52.0383 285.684 52.0903C285.58 52.1423 285.527 52.1943 285.475 52.2463C285.319 52.3503 285.319 52.3503 285.371 52.2983C285.423 52.2983 285.371 52.2983 285.215 52.3503C285.111 52.4023 285.059 52.4543 284.955 52.5063C284.903 52.5063 284.799 52.5583 284.747 52.6103C284.695 52.6623 284.591 52.6623 284.486 52.6623C284.434 52.7143 284.33 52.7143 284.278 52.7143C284.174 52.7663 284.122 52.7663 284.018 52.7663C283.914 52.7663 283.862 52.7663 283.758 52.7143C283.654 52.7143 283.602 52.7143 283.549 52.6623C283.445 52.6623 283.393 52.6623 283.289 52.6103C283.185 52.5583 283.133 52.5583 283.081 52.5063C282.977 52.4543 282.925 52.4543 282.821 52.3503C282.769 52.3503 282.769 52.3503 282.717 52.3503C282.717 52.2983 282.717 52.2983 282.665 52.2983C282.769 52.3503 282.717 52.3503 282.56 52.2463C282.508 52.1943 282.404 52.1423 282.352 52.0903C282.3 52.0383 282.248 51.9863 282.196 51.9343C282.144 51.8824 282.092 51.8304 282.04 51.7784C281.988 51.6744 281.936 51.6224 281.884 51.5704V51.5184L281.832 51.4664L258.408 12.8335V60.6176H258.304Z" fill="black"/>
<path d="M329.408 63.0095C328.732 62.7495 328.263 62.2815 328.003 61.6056C327.691 60.9296 327.691 60.2537 328.003 59.5778L334.093 44.9669V44.9149L351.739 2.38238C351.791 2.22639 351.895 2.0704 351.947 1.91442L352.104 1.75843C352.208 1.65444 352.26 1.55045 352.26 1.55045C352.26 1.55045 352.364 1.44645 352.468 1.39446C352.624 1.29047 352.676 1.23847 352.624 1.23847C352.936 1.03049 353.197 0.926495 353.561 0.822504H353.769C353.925 0.770508 354.03 0.770508 354.082 0.770508C354.134 0.770508 354.186 0.770508 354.342 0.822504C354.498 0.822504 354.602 0.822504 354.55 0.822504C354.914 0.874499 355.227 1.03049 355.487 1.23847L355.643 1.39446C355.747 1.49845 355.851 1.55045 355.851 1.55045C355.903 1.60244 355.955 1.65444 356.008 1.75843C356.112 1.91442 356.164 1.96641 356.164 1.91442C356.268 2.0704 356.32 2.22639 356.372 2.38238L374.018 44.9149V44.9669L380.108 59.5778C380.42 60.2537 380.42 60.9296 380.108 61.6056C379.848 62.2815 379.379 62.7495 378.703 63.0095C378.39 63.1655 378.026 63.2175 377.714 63.2175C376.569 63.2175 375.736 62.6975 375.319 61.6056L369.906 48.6066H338.049L332.636 61.6056C332.219 62.6975 331.386 63.2175 330.241 63.2175C329.877 63.2175 329.721 63.2175 329.721 63.2175C329.721 63.2175 329.721 63.1655 329.408 63.0095ZM367.876 43.4071L354.082 10.2337L340.287 43.4071H367.876Z" fill="black"/>
<path d="M413.995 0.874481C419.044 0.874481 423.312 2.53835 426.904 5.81408C430.444 9.08982 432.213 13.0415 432.213 17.7211C432.213 21.8288 430.756 25.4685 427.841 28.5882C424.978 31.708 421.386 33.5798 417.066 34.2558L429.507 59.5777C429.819 60.2017 429.871 60.8776 429.663 61.5536C429.455 62.2295 428.986 62.6975 428.362 63.0615C427.997 63.2174 427.633 63.3214 427.216 63.3214C426.123 63.3214 425.394 62.8535 424.926 61.8655L411.444 34.5678H396.869V60.3057C396.869 60.9816 396.609 61.6056 396.089 62.1255C395.62 62.6455 394.995 62.8535 394.267 62.8535C393.59 62.8535 392.965 62.5935 392.445 62.1255C391.976 61.6056 391.716 60.9816 391.716 60.3057V3.42227C391.716 2.69433 391.976 2.07038 392.445 1.60242C392.965 1.13446 393.59 0.874481 394.267 0.874481H413.995ZM427.06 17.6691C427.06 14.4454 425.759 11.6896 423.208 9.45379C420.658 7.11398 417.587 5.97007 413.995 5.97007H396.869V29.3162H414.307C417.847 29.2642 420.866 28.1203 423.312 25.8325C425.811 23.5446 427.06 20.8409 427.06 17.6691Z" fill="black"/>
<path d="M448.818 62.8015C448.142 62.8015 447.517 62.5415 446.997 62.0215C446.528 61.5536 446.268 60.9296 446.268 60.2017V3.2663C446.268 2.59036 446.528 1.96641 446.997 1.44645C447.517 0.92649 448.142 0.718506 448.818 0.718506C449.547 0.718506 450.172 0.978485 450.64 1.44645C451.161 1.96641 451.421 2.59036 451.421 3.2663V36.0756L484.111 1.75842C484.579 1.23846 485.204 0.978486 485.88 0.92649C486.609 0.92649 487.234 1.18647 487.754 1.65443C488.275 2.17439 488.535 2.74634 488.535 3.42229C488.535 4.15023 488.327 4.77418 487.858 5.29414L462.769 31.604L488.743 58.8498C489.212 59.3178 489.472 59.9417 489.472 60.6697C489.42 61.3976 489.16 62.0215 488.639 62.4895C488.119 62.9575 487.546 63.1655 486.869 63.1655C486.141 63.1655 485.516 62.9055 484.995 62.3855L459.229 35.2957L451.473 43.459V60.0977C451.473 60.8256 451.213 61.4496 450.692 61.9176C450.172 62.5415 449.547 62.8015 448.818 62.8015Z" fill="black"/>
<path d="M504.151 63.2174C503.422 63.2174 502.798 62.9575 502.329 62.4375C501.809 61.9175 501.548 61.3456 501.548 60.6176V3.26629C501.548 2.53835 501.809 1.9144 502.329 1.44644C502.85 0.874487 503.474 0.614507 504.151 0.666503L538.766 0.770495C539.495 0.770495 540.12 1.03047 540.588 1.55043C541.109 2.07039 541.369 2.69434 541.369 3.37029C541.369 4.09823 541.109 4.72217 540.588 5.24213C540.12 5.76209 539.495 5.97007 538.766 5.97007L506.754 5.86608V29.3162H530.698C531.427 29.3162 532.051 29.5762 532.52 30.0961C533.04 30.5641 533.301 31.188 533.301 31.916C533.301 32.6439 533.04 33.2679 532.52 33.7358C532.051 34.2558 531.427 34.5158 530.698 34.5158H506.754V57.9659H538.766C539.495 57.9659 540.12 58.2258 540.588 58.7458C541.109 59.2138 541.369 59.8377 541.369 60.5657C541.369 61.2936 541.109 61.9175 540.588 62.3855C540.12 62.9055 539.495 63.1654 538.766 63.1654H504.151V63.2174Z" fill="black"/>
<path d="M567.968 5.97006H550.739C550.01 5.97006 549.385 5.71008 548.865 5.24212C548.344 4.77416 548.136 4.15021 548.136 3.42227C548.136 2.69433 548.396 2.07038 548.865 1.60242C549.385 1.08246 550.01 0.822479 550.739 0.822479H590.403C591.132 0.822479 591.757 1.08246 592.225 1.60242C592.746 2.12237 593.006 2.69433 593.006 3.42227C593.006 4.15021 592.746 4.77416 592.225 5.24212C591.757 5.71008 591.132 5.97006 590.403 5.97006H573.174V60.6176C573.174 61.3456 572.913 61.9695 572.445 62.4895C571.924 62.9575 571.3 63.2174 570.571 63.2174C569.894 63.2174 569.27 62.9575 568.749 62.4895C568.281 61.9695 568.02 61.3456 568.02 60.6176V5.97006H567.968Z" fill="black"/>
</svg>
