<svg width="66" height="66" viewBox="0 0 66 66" fill="none" xmlns="http://www.w3.org/2000/svg">
<path d="M17.0637 55.4263C20.2531 55.4263 22.8387 52.8407 22.8387 49.6513C22.8387 46.4618 20.2531 43.8763 17.0637 43.8763C13.8743 43.8763 11.2887 46.4618 11.2887 49.6513C11.2887 52.8407 13.8743 55.4263 17.0637 55.4263Z" fill="white" stroke="black" stroke-width="2" stroke-miterlimit="10"/>
<path d="M49.61 55.4263C52.7994 55.4263 55.385 52.8407 55.385 49.6513C55.385 46.4618 52.7994 43.8763 49.61 43.8763C46.4205 43.8763 43.835 46.4618 43.835 49.6513C43.835 52.8407 46.4205 55.4263 49.61 55.4263Z" fill="white" stroke="black" stroke-width="2" stroke-miterlimit="10"/>
<path d="M11.7288 20.1025V34.4575C11.7288 38.2387 14.8226 41.2637 18.6038 41.1675L39.5313 40.6587C43.3126 40.5625 48.8676 38.61 51.8651 36.3137L53.1026 35.365C56.1138 33.0687 55.8388 29.7275 52.5113 27.9262L24.7501 12.9525C21.4226 11.1512 16.5138 9.50125 13.8463 9.2675C11.1788 9.03375 8.99255 8.84125 8.99255 8.84125" fill="white"/>
<path d="M11.7288 20.1025V34.4575C11.7288 38.2387 14.8226 41.2637 18.6038 41.1675L39.5313 40.6587C43.3126 40.5625 48.8676 38.61 51.8651 36.3137L53.1026 35.365C56.1138 33.0687 55.8388 29.7275 52.5113 27.9262L24.7501 12.9525C21.4226 11.1512 16.5138 9.50125 13.8463 9.2675C11.1788 9.03375 8.99255 8.84125 8.99255 8.84125" stroke="black" stroke-width="2" stroke-miterlimit="10"/>
<circle cx="50" cy="23" r="12" fill="#FF0000"/>
<path d="M52.0488 16.1768V29H49.5176V19.0947L46.4766 20.0615V18.0664L51.7764 16.1768H52.0488Z" fill="white"/>
</svg>
